{"asset":{"version":"2.0","generator":"Blockbench 5.0.4 glTF exporter"},"scenes":[{"nodes":[7,8,9,10,11],"name":"blockbench_export"}],"scene":0,"nodes":[{"translation":[0,0.625,-2.4375],"name":"RearLicense","mesh":0},{"translation":[0,0.5,1.8125],"name":"GrillSplitter","mesh":1},{"translation":[0.9375,0.375,1.8125],"name":"FrontBumper","mesh":2},{"translation":[0.9375,0.4375,-2.4375],"name":"RearBumper","mesh":3},{"name":"Chrome","children":[1,2,3]},{"translation":[1.5,0.75,0],"name":"Body","mesh":4},{"translation":[0,0.75,1],"name":"HoodShaker","mesh":5},{"name":"Platform","children":[0,4,5,6]},{"rotation":[0,-1,0,6.123233995736766e-17],"translation":[-0.75,0,-1.625],"name":"wheel-default","mesh":6},{"rotation":[0,-1,0,6.123233995736766e-17],"translation":[-0.75,0,1.1875],"name":"wheel-default","mesh":7},{"rotation":[0,1,0,6.123233995736766e-17],"translation":[0.75,0,-1.625],"name":"wheel-default","mesh":8},{"rotation":[0,1,0,6.123233995736766e-17],"translation":[0.75,0,1.1875],"name":"wheel-default","mesh":9}],"bufferViews":[{"buffer":0,"byteOffset":0,"byteLength":288,"target":34962,"byteStride":12},{"buffer":0,"byteOffset":288,"byteLength":288,"target":34962,"byteStride":12},{"buffer":0,"byteOffset":576,"byteLength":192,"target":34962,"byteStride":8},{"buffer":0,"byteOffset":768,"byteLength":72,"target":34963},{"buffer":0,"byteOffset":840,"byteLength":288,"target":34962,"byteStride":12},{"buffer":0,"byteOffset":1128,"byteLength":288,"target":34962,"byteStride":12},{"buffer":0,"byteOffset":1416,"byteLength":192,"target":34962,"byteStride":8},{"buffer":0,"byteOffset":1608,"byteLength":72,"target":34963},{"buffer":0,"byteOffset":1680,"byteLength":1224,"target":34962,"byteStride":12},{"buffer":0,"byteOffset":2904,"byteLength":1224,"target":34962,"byteStride":12},{"buffer":0,"byteOffset":4128,"byteLength":816,"target":34962,"byteStride":8},{"buffer":0,"byteOffset":4944,"byteLength":288,"target":34963},{"buffer":0,"byteOffset":5232,"byteLength":504,"target":34962,"byteStride":12},{"buffer":0,"byteOffset":5736,"byteLength":504,"target":34962,"byteStride":12},{"buffer":0,"byteOffset":6240,"byteLength":336,"target":34962,"byteStride":8},{"buffer":0,"byteOffset":6576,"byteLength":120,"target":34963},{"buffer":0,"byteOffset":6696,"byteLength":4872,"target":34962,"byteStride":12},{"buffer":0,"byteOffset":11568,"byteLength":4872,"target":34962,"byteStride":12},{"buffer":0,"byteOffset":16440,"byteLength":3248,"target":34962,"byteStride":8},{"buffer":0,"byteOffset":19688,"byteLength":1188,"target":34963},{"buffer":0,"byteOffset":20876,"byteLength":288,"target":34962,"byteStride":12},{"buffer":0,"byteOffset":21164,"byteLength":288,"target":34962,"byteStride":12},{"buffer":0,"byteOffset":21452,"byteLength":192,"target":34962,"byteStride":8},{"buffer":0,"byteOffset":21644,"byteLength":72,"target":34963},{"buffer":0,"byteOffset":21716,"byteLength":11952,"target":34962,"byteStride":12},{"buffer":0,"byteOffset":33668,"byteLength":11952,"target":34962,"byteStride":12},{"buffer":0,"byteOffset":45620,"byteLength":7968,"target":34962,"byteStride":8},{"buffer":0,"byteOffset":53588,"byteLength":1992,"target":34963},{"buffer":0,"byteOffset":55580,"byteLength":11952,"target":34962,"byteStride":12},{"buffer":0,"byteOffset":67532,"byteLength":11952,"target":34962,"byteStride":12},{"buffer":0,"byteOffset":79484,"byteLength":7968,"target":34962,"byteStride":8},{"buffer":0,"byteOffset":87452,"byteLength":1992,"target":34963},{"buffer":0,"byteOffset":89444,"byteLength":11952,"target":34962,"byteStride":12},{"buffer":0,"byteOffset":101396,"byteLength":11952,"target":34962,"byteStride":12},{"buffer":0,"byteOffset":113348,"byteLength":7968,"target":34962,"byteStride":8},{"buffer":0,"byteOffset":121316,"byteLength":1992,"target":34963},{"buffer":0,"byteOffset":123308,"byteLength":11952,"target":34962,"byteStride":12},{"buffer":0,"byteOffset":135260,"byteLength":11952,"target":34962,"byteStride":12},{"buffer":0,"byteOffset":147212,"byteLength":7968,"target":34962,"byteStride":8},{"buffer":0,"byteOffset":155180,"byteLength":1992,"target":34963}],"buffers":[{"byteLength":157172,"uri":"data:application/octet-stream;base64,"}],"accessors":[{"bufferView":0,"componentType":5126,"count":24,"max":[0.125,0.09375,0.0625],"min":[-0.125,-0.03125,-0.0625],"type":"VEC3"},{"bufferView":1,"componentType":5126,"count":24,"max":[1,1,1],"min":[-1,-1,-1],"type":"VEC3"},{"bufferView":2,"componentType":5126,"count":24,"max":[0.359375,0.046875],"min":[0.015625,0.015625],"type":"VEC2"},{"bufferView":3,"componentType":5123,"count":36,"max":[23],"min":[0],"type":"SCALAR"},{"bufferView":4,"componentType":5126,"count":24,"max":[0.03125,0.15625,0.0625],"min":[-0.03125,-0.03125,-0.0625],"type":"VEC3"},{"bufferView":5,"componentType":5126,"count":24,"max":[1,1,1],"min":[-1,-1,-1],"type":"VEC3"},{"bufferView":6,"componentType":5126,"count":24,"max":[0.421875,0.484375],"min":[0.1875,0.375],"type":"VEC2"},{"bufferView":7,"componentType":5123,"count":36,"max":[23],"min":[0],"type":"SCALAR"},{"bufferView":8,"componentType":5126,"count":102,"max":[0.0625,0.078125,0.125],"min":[-1.9375,-0.015625,-0.25],"type":"VEC3"},{"bufferView":9,"componentType":5126,"count":102,"max":[1,1,1],"min":[-1,-1,-1],"type":"VEC3"},{"bufferView":10,"componentType":5126,"count":102,"max":[0.515625,0.515625],"min":[0,0],"type":"VEC2"},{"bufferView":11,"componentType":5123,"count":144,"max":[101],"min":[0],"type":"SCALAR"},{"bufferView":12,"componentType":5126,"count":42,"max":[0.03125,0.078125,0.125],"min":[-1.90625,0.015625,-0.11979187279939651],"type":"VEC3"},{"bufferView":13,"componentType":5126,"count":42,"max":[1,1,1],"min":[-1,-1,-1],"type":"VEC3"},{"bufferView":14,"componentType":5126,"count":42,"max":[0.484375,0.5139753818511963],"min":[0,0],"type":"VEC2"},{"bufferView":15,"componentType":5123,"count":60,"max":[41],"min":[0],"type":"SCALAR"},{"bufferView":16,"componentType":5126,"count":406,"max":[-0.25,0.4375,1.875],"min":[-2.75,-0.5625,-2.4991493225097656],"type":"VEC3"},{"bufferView":17,"componentType":5126,"count":406,"max":[1,1,1],"min":[-1,-1,-1],"type":"VEC3"},{"bufferView":18,"componentType":5126,"count":406,"max":[1,0.828125],"min":[0,0],"type":"VEC2"},{"bufferView":19,"componentType":5123,"count":594,"max":[405],"min":[0],"type":"SCALAR"},{"bufferView":20,"componentType":5126,"count":24,"max":[0.25,0.0625,0.3125],"min":[-0.25,0,-0.0625],"type":"VEC3"},{"bufferView":21,"componentType":5126,"count":24,"max":[1,1,1],"min":[-1,-1,-1],"type":"VEC3"},{"bufferView":22,"componentType":5126,"count":24,"max":[0.359375,0.046875],"min":[0.015625,0.015625],"type":"VEC2"},{"bufferView":23,"componentType":5123,"count":36,"max":[23],"min":[0],"type":"SCALAR"},{"bufferView":24,"componentType":5126,"count":996,"max":[0.20000000298023224,0.612500011920929,0.30000001192092896],"min":[-0.20000000298023224,0.012500000186264515,-0.30000001192092896],"type":"VEC3"},{"bufferView":25,"componentType":5126,"count":996,"max":[1,0.9914444088935852,0.9914444088935852],"min":[-1,-0.9914444088935852,-0.9914444088935852],"type":"VEC3"},{"bufferView":26,"componentType":5126,"count":996,"max":[0.5938000082969666,0.9750499725341797],"min":[0.09375,0.5249999761581421],"type":"VEC2"},{"bufferView":27,"componentType":5123,"count":996,"max":[995],"min":[0],"type":"SCALAR"},{"bufferView":28,"componentType":5126,"count":996,"max":[0.20000000298023224,0.612500011920929,0.30000001192092896],"min":[-0.20000000298023224,0.012500000186264515,-0.30000001192092896],"type":"VEC3"},{"bufferView":29,"componentType":5126,"count":996,"max":[1,0.9914444088935852,0.9914444088935852],"min":[-1,-0.9914444088935852,-0.9914444088935852],"type":"VEC3"},{"bufferView":30,"componentType":5126,"count":996,"max":[0.5938000082969666,0.9750499725341797],"min":[0.09375,0.5249999761581421],"type":"VEC2"},{"bufferView":31,"componentType":5123,"count":996,"max":[995],"min":[0],"type":"SCALAR"},{"bufferView":32,"componentType":5126,"count":996,"max":[0.20000000298023224,0.612500011920929,0.30000001192092896],"min":[-0.20000000298023224,0.012500000186264515,-0.30000001192092896],"type":"VEC3"},{"bufferView":33,"componentType":5126,"count":996,"max":[1,0.9914444088935852,0.9914444088935852],"min":[-1,-0.9914444088935852,-0.9914444088935852],"type":"VEC3"},{"bufferView":34,"componentType":5126,"count":996,"max":[0.5938000082969666,0.9750499725341797],"min":[0.09375,0.5249999761581421],"type":"VEC2"},{"bufferView":35,"componentType":5123,"count":996,"max":[995],"min":[0],"type":"SCALAR"},{"bufferView":36,"componentType":5126,"count":996,"max":[0.20000000298023224,0.612500011920929,0.30000001192092896],"min":[-0.20000000298023224,0.012500000186264515,-0.30000001192092896],"type":"VEC3"},{"bufferView":37,"componentType":5126,"count":996,"max":[1,0.9914444088935852,0.9914444088935852],"min":[-1,-0.9914444088935852,-0.9914444088935852],"type":"VEC3"},{"bufferView":38,"componentType":5126,"count":996,"max":[0.5938000082969666,0.9750499725341797],"min":[0.09375,0.5249999761581421],"type":"VEC2"},{"bufferView":39,"componentType":5123,"count":996,"max":[995],"min":[0],"type":"SCALAR"}],"materials":[{"pbrMetallicRoughness":{"metallicFactor":0,"roughnessFactor":1,"baseColorTexture":{"index":0}},"alphaMode":"MASK","alphaCutoff":0.05,"doubleSided":true},{"pbrMetallicRoughness":{"metallicFactor":0,"roughnessFactor":1,"baseColorTexture":{"index":1}},"alphaMode":"MASK","alphaCutoff":0.05,"doubleSided":true},{"pbrMetallicRoughness":{"metallicFactor":0,"roughnessFactor":1,"baseColorTexture":{"index":2}},"alphaMode":"MASK","alphaCutoff":0.05,"doubleSided":true},{"pbrMetallicRoughness":{"metallicFactor":0,"roughnessFactor":1,"baseColorTexture":{"index":3}},"alphaMode":"MASK","alphaCutoff":0.05,"doubleSided":true},{"pbrMetallicRoughness":{"metallicFactor":0,"roughnessFactor":1},"alphaMode":"MASK","alphaCutoff":0.05,"doubleSided":true}],"textures":[{"sampler":0,"source":0,"name":"texture"},{"sampler":1,"source":1,"name":"texture_chrome"},{"sampler":2,"source":2,"name":"texture_extras"},{"sampler":3,"source":3,"name":"texture_shaker"}],"samplers":[{"magFilter":9728,"minFilter":9728,"wrapS":33071,"wrapT":33071},{"magFilter":9728,"minFilter":9728,"wrapS":33071,"wrapT":33071},{"magFilter":9728,"minFilter":9728,"wrapS":33071,"wrapT":33071},{"magFilter":9728,"minFilter":9728,"wrapS":33071,"wrapT":33071}],"images":[{"mimeType":"image/png","name":"texture_license.png","uri":"texture_license.png"},{"mimeType":"image/png","name":"texture_chrome.png","uri":"texture_chrome.png"},{"mimeType":"image/png","name":"texture_glass.png","uri":"texture_glass.png"},{"mimeType":"image/png","name":"texture_shaker.png","uri":"texture_shaker.png"}],"meshes":[{"primitives":[{"mode":4,"attributes":{"POSITION":0,"NORMAL":1,"TEXCOORD_0":2},"indices":3,"material":0}]},{"primitives":[{"mode":4,"attributes":{"POSITION":4,"NORMAL":5,"TEXCOORD_0":6},"indices":7,"material":1}]},{"primitives":[{"mode":4,"attributes":{"POSITION":8,"NORMAL":9,"TEXCOORD_0":10},"indices":11,"material":1}]},{"primitives":[{"mode":4,"attributes":{"POSITION":12,"NORMAL":13,"TEXCOORD_0":14},"indices":15,"material":1}]},{"primitives":[{"mode":4,"attributes":{"POSITION":16,"NORMAL":17,"TEXCOORD_0":18},"indices":19,"material":2}]},{"primitives":[{"mode":4,"attributes":{"POSITION":20,"NORMAL":21,"TEXCOORD_0":22},"indices":23,"material":3}]},{"primitives":[{"mode":4,"attributes":{"POSITION":24,"NORMAL":25,"TEXCOORD_0":26},"indices":27,"material":4}]},{"primitives":[{"mode":4,"attributes":{"POSITION":28,"NORMAL":29,"TEXCOORD_0":30},"indices":31,"material":4}]},{"primitives":[{"mode":4,"attributes":{"POSITION":32,"NORMAL":33,"TEXCOORD_0":34},"indices":35,"material":4}]},{"primitives":[{"mode":4,"attributes":{"POSITION":36,"NORMAL":37,"TEXCOORD_0":38},"indices":39,"material":4}]}]}